<svg width="18" height="13" viewBox="0 0 18 13" fill="none" xmlns="http://www.w3.org/2000/svg">
<path d="M0.00165391 0.899917C0.00165391 0.402911 0.404547 0 0.901571 0L17.1001 0C17.5971 0 18 0.402911 18 0.899917C18 1.39692 17.5971 1.79983 17.1001 1.79983H0.901571C0.404547 1.79983 0.00165391 1.39692 0.00165391 0.899917Z" fill="white"/>
<path d="M-0.00118518 6.30226C-0.00118518 5.80524 0.401708 5.40234 0.898732 5.40234H11.6977C12.1948 5.40234 12.5977 5.80524 12.5977 6.30226C12.5977 6.79929 12.1948 7.20218 11.6977 7.20218H0.898732C0.401708 7.20218 -0.00118518 6.79929 -0.00118518 6.30226Z" fill="white"/>
<path d="M0.90175 10.7988C0.404726 10.7988 0.00183296 11.2017 0.00183296 11.6987C0.00183296 12.1958 0.404726 12.5987 0.90175 12.5987H6.30125C6.79828 12.5987 7.20117 12.1958 7.20117 11.6987C7.20117 11.2017 6.79828 10.7988 6.30125 10.7988H0.90175Z" fill="white"/>
</svg>
