<svg xmlns="http://www.w3.org/2000/svg" viewBox="0 0 104.69 55.01"><defs><style>.co_ingredient_cacaobeans_1{fill:#b5352e;}.co_ingredient_cacaobeans_2{fill:#892124;}.co_ingredient_cacaobeans_3{fill:#210b05;}.co_ingredient_cacaobeans_4{fill:#371a0d;}.co_ingredient_cacaobeans_5{fill:#421c10;}.co_ingredient_cacaobeans_6{fill:#39170a;}</style></defs><g id="Layer_2" data-name="Layer 2"><g id="Layer_1-2" data-name="Layer 1"><path class="co_ingredient_cacaobeans_1" d="M25.78,30.06a17.8,17.8,0,0,0-3.42-1,25.06,25.06,0,0,1-3.48-.77c-2.46-.87-4.77-.39-7.13.39A16.44,16.44,0,0,1,8,29.51a7.52,7.52,0,0,0-4.62,1.87A13.61,13.61,0,0,0,0,36.46V38a43.49,43.49,0,0,0,1.75,4.49,18,18,0,0,0,2.48,3.43,12.31,12.31,0,0,0,2.86,2.59c2.81,1.62,5.7,3.08,8.61,4.52a16.57,16.57,0,0,0,17.88-1.52C22.85,47.83,24.77,34.62,25.78,30.06Z"/><path class="co_ingredient_cacaobeans_2" d="M38,43a15.76,15.76,0,0,0-4.38-7.55c-1.08-1-2.24-1.83-3.37-2.74a18.7,18.7,0,0,0-4.51-2.69c-1,4.56-2.93,17.77,7.8,21.47A14.37,14.37,0,0,0,37,47.48C37.8,46.1,38.5,44.61,38,43Z"/><path class="co_ingredient_cacaobeans_2" d="M57.07,32.8a23.84,23.84,0,0,0,10.26,4.73,19.21,19.21,0,0,0,.8-7.87,5.42,5.42,0,0,0-.8-2.68,15.53,15.53,0,0,0-6.25-5.37,38.13,38.13,0,0,0-6-1.91,8.34,8.34,0,0,0-1.51-.23C53,22,52.07,29,57.07,32.8Z"/><path class="co_ingredient_cacaobeans_1" d="M57.07,32.8C52.07,29,53,22,53.54,19.47l-.36,0H48.65c-.57.09-1.14.16-1.7.26a45.17,45.17,0,0,0-11.1,3.71,25.24,25.24,0,0,0-4.51,2.74,7.31,7.31,0,0,0-3.06,7.37,13,13,0,0,1,.17,2.33c0,2.62,1.17,4.79,2.49,6.9a6.67,6.67,0,0,0,1.55,1.63,22.4,22.4,0,0,0,11,4.34,32.06,32.06,0,0,0,11.66-.66,16.45,16.45,0,0,0,12-10.1c.06-.14.1-.28.15-.42A23.84,23.84,0,0,1,57.07,32.8Z"/><path class="co_ingredient_cacaobeans_1" d="M97.9,10c-.53-3.38-2-6.36-5.37-7.75A25,25,0,0,0,82.31,0H80.89l-.26,0A45.39,45.39,0,0,0,59.7,8.17a13.58,13.58,0,0,0-4.77,5.29c-2.23,4.86-1.12,9.33,2,13.37,2.44,3.14,5.87,5.07,9.41,6.7,2.12,1,4.42.7,6.66.26a37.57,37.57,0,0,0,10.14-3.12A38.78,38.78,0,0,0,94.4,21.31,13.46,13.46,0,0,0,97.9,10Z"/><path class="co_ingredient_cacaobeans_2" d="M75.75,53a10,10,0,0,1-6.53-2c-.65-.51-1.46-.83-2.15-1.3-2-1.35-2.6-2.89-1.74-5.15a26.79,26.79,0,0,1,5.34-9.25,10.59,10.59,0,0,1,2.47-1.89,27.88,27.88,0,0,1,10.65-3.78,17.75,17.75,0,0,1,11,2.2c1.4.82,2.69,1.81,4,2.75a35.58,35.58,0,0,1,3.73,2.8,6.34,6.34,0,0,1,1.9,6.48,6,6,0,0,1-3.7,4.19,49.93,49.93,0,0,1-13.9,3.63c-3,.45-6,.78-9.05,1.15C77.14,52.93,76.44,52.94,75.75,53Z"/><path class="co_ingredient_cacaobeans_3" d="M53.26,25.54a16.15,16.15,0,0,1,1.59,1C56,28.78,50.56,26.47,53.26,25.54Z"/><path class="co_ingredient_cacaobeans_4" d="M69.73,49.55c.78-1.19.73-3.19,2.32-3.38C72.64,47.43,71,52.41,69.73,49.55Z"/><path class="co_ingredient_cacaobeans_3" d="M61.36,34.78c1.3-.07,2.92,1.86,1.85,2.75C62.36,37.48,59.84,35.28,61.36,34.78Z"/><path class="co_ingredient_cacaobeans_3" d="M34.42,39.61c2.47,1-2.45,2.7-1.51.77A16.25,16.25,0,0,1,34.42,39.61Z"/><path class="co_ingredient_cacaobeans_3" d="M35.18,31.07c1.56.63-1,2-1.51.91C33.71,31.26,34.56,31.26,35.18,31.07Z"/><path class="co_ingredient_cacaobeans_3" d="M35,47.75c-.53,2.92-1.88-1-2.08-2.1C33.05,43.21,35.39,47.22,35,47.75Z"/><path class="co_ingredient_cacaobeans_3" d="M9,36.63C12.1,37,7.78,39.07,6.74,38,6.93,36.87,8.24,36.9,9,36.63Z"/><path class="co_ingredient_cacaobeans_3" d="M30.93,43.53c-.7-.63-1-1.1-.12-1.39C31.69,42.47,31.71,42.84,30.93,43.53Z"/><g id="PDQTWt.tif"><path class="co_ingredient_cacaobeans_5" d="M21.86,46.52a1.76,1.76,0,0,1,0,.23c-.05.52-.25.66-.7.43a10.81,10.81,0,0,1-1.2-.67,17,17,0,0,0-3.16-1.58,5.23,5.23,0,0,0-1.11-.24,10.53,10.53,0,0,1-3.75-1.22,6.63,6.63,0,0,1-.66-.55v-.77c.65-.29.65-.28,1.41.07s1.32.58,2,.82c.34.12.76-.11,1,.26a6.26,6.26,0,0,1,3,1c.28.16.59.25.88.39A7.89,7.89,0,0,1,21.86,46.52Z"/><path class="co_ingredient_cacaobeans_6" d="M42.85,35.13a2.34,2.34,0,0,1,1.79-.88A13.39,13.39,0,0,0,47,33.8a7.14,7.14,0,0,1,1.47-.21,5.05,5.05,0,0,0,.56-.12,1.74,1.74,0,0,1,1.75.49,1.23,1.23,0,0,1-.8.49c-.35.08-.7-.09-1.08.15-.23.15-.63,0-1,.18a7.08,7.08,0,0,1-1,.2,4.21,4.21,0,0,1-.91.3c-.73,0-1.38.38-2.11.4A1,1,0,0,1,42.85,35.13Z"/><path class="co_ingredient_cacaobeans_3" d="M71.49,13.47H71a.41.41,0,0,1-.45-.4,1,1,0,0,1,.92-1.16c.77-.14,1.49-.43,2.25-.63A4.22,4.22,0,0,1,75.23,11c.26,0,.45.11.49.36s.06.55-.23.67-.73.33-1.12.45c-.81.24-1.58.65-2.42.83Z"/><path class="co_ingredient_cacaobeans_5" d="M10.77,41.44c-.22.15-.29.46-.64.47a1.28,1.28,0,0,1-.89-.37c-.16-.13-.3-.27-.24-.5a.93.93,0,0,1,.61-.52.83.83,0,0,1,1,.52C10.62,41.16,10.69,41.27,10.77,41.44Z"/><path class="co_ingredient_cacaobeans_6" d="M39.66,36.75l-.69.48h-.43c-.37,0-.51-.16-.52-.49s.12-.5.55-.56A1.06,1.06,0,0,1,39.66,36.75Z"/><path class="co_ingredient_cacaobeans_3" d="M65.13,16.94v-.39c0-.57.12-.67.69-.65.36,0,.51.15.53.48s-.12.54-.53.56Z"/></g></g></g></svg>